<svg xmlns="http://www.w3.org/2000/svg" version="1.1" xmlns:xlink="http://www.w3.org/1999/xlink" xmlns:svgjs="http://svgjs.dev/svgjs" width="100%" height="100%" viewBox="0 0 1000 600"><rect width="1000" height="600" x="0" y="0" fill="#df678c"/><g><circle r="166.66666666666666" cx="297.97976175944007" cy="320.2019901942547" fill="#3d155f" transform="matrix(0.9519231394931449,0,0,0.9519231394931449,0,-4.807702851153749)"/><path d="M265.54882779619356 246.39798796891282L265.54882779619356 246.39798796891282Q271.3619188072447 246.39798796891282 274.3658127268309 250.2919245313394Q277.36970664641706 254.2136749263547 277.36970664641706 263.030659856992L277.36970664641706 263.030659856992Q277.36970664641706 274.04493756214146 274.7552063830735 287.840598526167Q272.14070611973 301.6640733227813 267.356726914463 314.09685648995764L267.356726914463 314.09685648995764L264.13032233416675 310.09166459717596Q280.15108990529325 306.67056318875836 297.3956661103251 306.8652600168797Q314.61242848276834 307.0877706775898 328.63060010750405 310.87045190966126L328.63060010750405 310.87045190966126L325.014801870965 312.67835102793083Q322.42811544021026 299.27208372014786 321.12086530853844 286.06051324048633Q319.81361517686673 272.82112892823596 319.81361517686673 262.61345236816055L319.81361517686673 262.61345236816055Q319.81361517686673 253.21237695315932 322.6228122683316 249.2071850603777Q325.43200935979644 245.20199316759607 331.6344940270902 245.20199316759607L331.6344940270902 245.20199316759607Q338.03167552250534 245.20199316759607 341.64747375904426 249.70783404697542Q345.2354581629944 254.2136749263547 347.23805410938525 263.8094471694774L347.23805410938525 263.8094471694774Q349.4631607164862 273.82242690143136 350.7425970155691 287.9518538565221Q352.04984714724094 302.0812808116127 352.04984714724094 316.8782397488337L352.04984714724094 316.8782397488337Q352.04984714724094 331.50831569052207 351.24324600216687 346.7224821165745Q350.4644586896816 361.9366485426269 348.23935208258064 374.95352219416714L348.23935208258064 374.95352219416714Q346.4592667968999 385.3837094149526 342.45407490411833 389.9729917920981Q338.4488830113367 394.59008800183256 331.4397971989689 394.59008800183256L331.4397971989689 394.59008800183256Q324.20820072589095 394.59008800183256 321.12086530853844 389.9729917920981Q318.0057160585972 385.3837094149526 318.0057160585972 372.756229419655L318.0057160585972 372.756229419655Q318.0057160585972 360.5459569131888 319.9248705072217 347.33438643352724Q321.8162111232575 334.1228159538657 325.20949869908634 321.3006391304467L325.20949869908634 321.3006391304467L329.43720125257806 327.5031237977405Q314.1952209939369 330.701714545448 297.6738044362128 330.6182730476818Q281.15238787848864 330.5070177173267 265.54882779619356 327.5031237977405L265.54882779619356 327.5031237977405L265.9382214524362 320.68873481349397Q269.9434133452179 333.7056084650343 273.44795625140176 347.52908326164857Q276.95249915758563 361.35255805826284 276.95249915758563 375.17603285487723L276.95249915758563 375.17603285487723Q276.95249915758563 386.19031056002666 273.1420040929254 390.696151439406Q269.35932286085387 395.2019923187853 262.35023704848606 395.2019923187853L262.35023704848606 395.2019923187853Q256.3424492093136 395.2019923187853 252.72665097277468 391.7808909103677Q249.1108527362357 388.38760333453877 247.5254642786763 379.1812247476588L247.5254642786763 379.1812247476588Q245.91226198852817 370.16954298890016 244.91096401533275 356.6520203507622Q243.90966604213736 343.13449771262435 243.90966604213736 328.11502811469325L243.90966604213736 328.11502811469325Q243.90966604213736 310.2863614252973 245.5228683322855 293.45899270909683Q247.10825678984492 276.63162399289627 249.72275705318845 264.61604831455145L249.72275705318845 264.61604831455145Q251.72535299957926 255.21497289955013 255.53584806423953 250.7925735179371Q259.34634312889983 246.39798796891282 265.54882779619356 246.39798796891282Z " fill="#df678c" transform="matrix(0.9519231394931449,0,0,0.9519231394931449,0,-4.807702851153749)"/><path d="M564.3518114421288 254.14559640518655L564.3518114421288 254.14559640518655Q568.7499596655973 254.14559640518655 571.0226869772462 257.09172440176826Q573.2954142888949 260.05889616975423 573.2954142888949 266.7297717048715L573.2954142888949 266.7297717048715Q573.2954142888949 275.06310518091703 571.3172997769043 285.5008157973781Q569.3391852649137 295.95957018524336 565.719656583399 305.3661360029008L565.719656583399 305.3661360029008L563.2785791005169 302.3358329207024Q575.3997914293104 299.7474490379914 588.4469296998868 299.89475543782044Q601.473024199059 300.06310560905365 612.0790849867533 302.92505852001875L612.0790849867533 302.92505852001875L609.3433947042131 304.29290366128885Q607.3863239636266 294.14980584448597 606.3972667076314 284.15401442751215Q605.4082094516361 274.1371792391342 605.4082094516361 266.4141151338091L605.4082094516361 266.4141151338091Q605.4082094516361 259.30132039920466 607.5336303634558 256.2710173170062Q609.6590512752755 253.24071423480785 614.3518122984021 253.24071423480785L614.3518122984021 253.24071423480785Q619.1918797213579 253.24071423480785 621.927570003898 256.6498052022811Q624.6422165150341 260.05889616975423 626.1573680561332 267.31899730418786L626.1573680561332 267.31899730418786Q627.8408697684657 274.89475500968376 628.8088832530568 285.5849908829947Q629.7979405090522 296.27522675630564 629.7979405090522 307.47051314331634L629.7979405090522 307.47051314331634Q629.7979405090522 318.5395369019021 629.1876711383317 330.0504798599751Q628.5984455390153 341.5614228180481 626.9149438266829 351.4099078351928L626.9149438266829 351.4099078351928Q625.568142456817 359.3013221117511 622.5378393746186 362.77354439343674Q619.5075362924201 366.2668104465266 614.204505898573 366.2668104465266L614.204505898573 366.2668104465266Q608.7331253334926 366.2668104465266 606.3972667076314 362.77354439343674Q604.0403643103659 359.3013221117511 604.0403643103659 349.7474498942646L604.0403643103659 349.7474498942646Q604.0403643103659 340.50923424784037 605.4923845372527 330.51344283086655Q606.9233609927353 320.51765141389274 609.4907011040423 310.81647279657705L609.4907011040423 310.81647279657705L612.6893543574738 315.5092338197037Q601.1573676279967 317.9292675311816 588.6573674139283 317.86613621696915Q576.1573671998601 317.78196113135255 564.3518114421288 315.5092338197037L564.3518114421288 315.5092338197037L564.646424241787 310.3535098256857Q567.6767273239855 320.20199484283035 570.328242520909 330.6607492306956Q572.9797577178326 341.1195036185609 572.9797577178326 351.57825800642604L572.9797577178326 351.57825800642604Q572.9797577178326 359.91159148247164 570.0967610354633 363.3206824499448Q567.2348081244982 366.72977341741796 561.931777730651 366.72977341741796L561.931777730651 366.72977341741796Q557.3863231073534 366.72977341741796 554.6506328248132 364.14138953470683Q551.914942542273 361.57404942339997 550.7154475722361 354.60856108862447L550.7154475722361 354.60856108862447Q549.4949088307951 347.79037915367815 548.7373330602455 337.56310625125855Q547.979757289696 327.33583334883906 547.979757289696 315.97219679059515L547.979757289696 315.97219679059515Q547.979757289696 302.48313932053156 549.200296031137 289.75165762101756Q550.3997910011738 277.02017592150344 552.3779055131645 267.9292666749084L552.3779055131645 267.9292666749084Q553.8930570542636 260.8164719403038 556.7760537366329 257.4705122870431Q559.6590504190021 254.14559640518655 564.3518114421288 254.14559640518655ZM717.2348106933179 364.6043525055983L717.2348106933179 364.6043525055983Q713.1312752695076 364.6043525055983 710.9427230434754 361.80553090884564Q708.7331270460392 358.98566554068884 707.9755512754895 354.52438600300786Q707.2179755049399 350.0631064653269 707.2179755049399 345.05468887113796L707.2179755049399 345.05468887113796L707.9755512754895 344.44441950041744Q706.4603997343903 350.96798863570564 702.083295282326 355.6607496588323Q697.6851470588575 360.35351068195894 691.919153694119 362.85771947905334Q686.1742041007846 365.36192827614786 680.4082107360459 365.36192827614786L680.4082107360459 365.36192827614786Q672.6851466307209 365.36192827614786 666.3088838952618 361.72135582322903Q659.9536649312068 358.0807833703101 656.4603988781171 350.5050256648142L656.4603988781171 350.5050256648142Q652.9881765964315 342.487348759831 651.0100620844408 330.2819613454209Q649.0529913438544 318.07657393101067 649.0529913438544 305.1977858316676L649.0529913438544 305.1977858316676Q649.0529913438544 298.2322974968921 649.6422169431708 292.3189977323244Q650.2524863138913 286.426741739161 651.6203314551614 282.638862886413L651.6203314551614 282.638862886413Q652.8408701966024 278.68263386243177 655.2609039080802 276.78869443605777Q657.6809376195581 274.89475500968376 661.4688164723061 274.89475500968376L661.4688164723061 274.89475500968376Q665.8669646957745 274.89475500968376 668.371173492869 278.3038459771569Q670.8543385185594 281.7129369446301 671.4646078892798 287.77354310902695L671.4646078892798 287.77354310902695Q672.0748772600003 292.7819607032159 672.3063587454461 300.1262369232661Q672.5378402308918 307.47051314331634 672.7482779449334 314.8358331347707Q672.9797594303791 322.18010935482096 673.4427224012705 327.16748317760585L673.4427224012705 327.16748317760585Q674.3476045716492 336.2583924242009 678.1354834243972 340.593409333457Q681.9233622771452 344.9073824713088 687.3736990708213 344.9073824713088L687.3736990708213 344.9073824713088Q695.4124197472088 344.9073824713088 699.642217799444 338.84677630691203Q703.8930596230833 332.7861701425153 703.8930596230833 321.8644527837587L703.8930596230833 321.8644527837587Q703.8930596230833 316.41411599008245 703.2827902523628 309.53280274092356Q702.6725208816424 302.6304457203606 701.9991201967094 296.1068765850724Q701.3257195117764 289.6043512211884 701.3257195117764 285.35350939754903L701.3257195117764 285.35350939754903Q701.3257195117764 278.24071466294447 703.7457532232543 275.1262364951295Q706.1657869347322 272.03280209871866 710.4166287583715 272.03280209871866L710.4166287583715 272.03280209871866Q714.0361574398863 272.03280209871866 716.5403662369807 273.9898728393051Q719.0445750340753 275.96798735129573 720.5597265751745 279.44020963298135L720.5597265751745 279.44020963298135Q722.6851474869942 283.98566425627894 724.2002990280934 291.87707853283723Q725.7154505691925 299.7474490379914 726.6203327395712 309.7432404549652Q727.5252149099499 319.76007564334316 727.5252149099499 330.8080556305247L727.5252149099499 330.8080556305247Q727.5252149099499 347.79037915367815 725.2524875983011 356.1868439439361Q722.9797602866523 364.6043525055983 717.2348106933179 364.6043525055983ZM703.2827902523628 266.4141151338091L703.2827902523628 266.4141151338091Q703.2827902523628 267.78196027507926 702.4620831676008 268.77101753107456Q701.6203323114346 269.76007478706987 699.9578743705064 269.76007478706987L699.9578743705064 269.76007478706987Q697.2221840879662 269.76007478706987 693.0555173499433 269.0656303307327Q688.8888506119206 268.3922296457997 684.1119145031772 267.1716909043588Q679.3560221658382 265.9721959343219 674.8105675425405 264.45704439322265L674.8105675425405 264.45704439322265Q669.1918805776311 262.4789298812321 666.3930589808784 260.5008153692415Q663.5942373841258 258.5437446286551 663.5942373841258 255.66074794628574L663.5942373841258 255.66074794628574Q663.5942373841258 253.53532703446604 664.9620825253959 251.11529332298818Q666.3088838952618 248.6952596115103 668.6657862925272 246.94862658496538Q671.0226886897926 245.2019935584205 673.8846416007577 245.2019935584205L673.8846416007577 245.2019935584205Q677.3779076538475 245.2019935584205 682.0075373627618 247.85350875534408Q686.6161233002717 250.50502395226766 691.7718472942898 254.14559640518655L691.7718472942898 254.14559640518655Q697.074877688137 257.93347525793456 700.189355855952 260.9637783401329Q703.2827902523628 263.9940814223313 703.2827902523628 266.4141151338091ZM761.4688181848526 271.2752263281691L761.4688181848526 271.2752263281691Q766.3088856078083 271.2752263281691 768.0555186343532 275.21041158074615Q769.8021516608982 279.1455968333232 769.8021516608982 286.8686609386482L769.8021516608982 286.8686609386482Q769.8021516608982 288.69946905080974 769.5706701754524 290.7407148770128Q769.3391886900067 292.7819607032159 768.8972694905194 294.4444186441442L768.8972694905194 294.4444186441442L768.5816129194571 291.4141155619458Q772.222185372376 281.565630544801 779.7979430778719 276.0311186655082Q787.3737007833679 270.51765055761945 795.8543406592424 270.51765055761945L795.8543406592424 270.51765055761945Q805.2609064769 270.51765055761945 811.5529941267424 275.8206809514666Q817.8240380051808 281.12371134531384 820.9385161729957 290.6565397913962Q824.0529943408108 300.2104120088827 824.0529943408108 313.23650650805496L824.0529943408108 313.23650650805496Q824.0529943408108 321.2752271844423 823.3585498844736 329.06142260397985Q822.6851491995407 336.8686617949214 821.5487855437162 343.308055844593Q820.4124218878918 349.7474498942646 819.0445767466218 353.8509853180749L819.0445767466218 353.8509853180749Q817.2348124058643 358.98566554068884 814.3518157234952 361.48987433778325Q811.4688190411258 363.99408313487777 807.5336337885487 363.99408313487777L807.5336337885487 363.99408313487777Q803.5984485359717 363.99408313487777 801.473027624152 361.1110864525085Q799.3476067123323 358.22808977013915 799.3476067123323 353.38802234718344L799.3476067123323 353.38802234718344Q799.3476067123323 348.23229835316533 800.1051824828819 340.8880221331151Q800.8627582534315 333.54374591306487 801.5361589383645 325.88381312195236Q802.2306033947016 318.2449241022439 802.2306033947016 312.0159677666139L802.2306033947016 312.0159677666139Q802.2306033947016 290.80384619122526 788.2785829537465 290.80384619122526L788.2785829537465 290.80384619122526Q780.8711754194838 290.80384619122526 775.8627578252949 297.41159041213007Q770.8543402311059 303.9982908616307 769.1918822901777 316.1195031904242L769.1918822901777 316.1195031904242Q768.7499630906904 320.20199484283035 768.7499630906904 326.2626010072271Q768.7499630906904 332.32320717162395 768.8130944049028 338.32068202180824Q768.8972694905194 344.2971131005884 768.434306519628 348.3796047529945L768.434306519628 348.3796047529945Q767.8240371489075 357.47051399958957 765.0252155521548 361.4267430235708Q762.2263939554022 365.36192827614786 757.3863265324464 365.36192827614786L757.3863265324464 365.36192827614786Q751.7676395675369 365.36192827614786 748.8846428851676 360.12202919651315Q746.0226899742025 354.9031738882826 746.0226899742025 342.487348759831L746.0226899742025 342.487348759831Q746.0226899742025 336.11108602437184 746.3173027738607 328.2407155192177Q746.6119155735188 320.3493012426595 747.159053630027 312.3947556518888Q747.6851479151308 304.440210061118 748.4427236856803 297.937684697234L748.4427236856803 297.937684697234Q749.9578752267796 285.6691659686113 752.8408719091489 278.47219614839025Q755.702824820114 271.2752263281691 761.4688181848526 271.2752263281691ZM871.4646113143729 363.0892009644991L871.4646113143729 363.0892009644991Q857.2179780737596 363.0892009644991 848.2954189983978 352.10435229152995Q839.3518161516317 341.1195036185609 839.3518161516317 318.6868433017312L839.3518161516317 318.6868433017312Q839.3518161516317 294.7600752152065 847.9797624273355 283.6910514566207Q856.6287524744433 272.622027698035 870.7070355438233 272.622027698035L870.7070355438233 272.622027698035Q879.0403690198688 272.622027698035 885.4166317553279 276.8728695216744Q891.7718507193829 281.12371134531384 896.3173053426805 288.8467754506388L896.3173053426805 288.8467754506388L895.0967666012394 290.9721963624585Q894.6548474017521 288.8467754506388 894.3391908306897 286.426741739161Q894.0445780310316 283.98566425627894 894.0445780310316 282.78616928624206L894.0445780310316 282.78616928624206Q894.0445780310316 276.57825672201625 896.0858238572347 273.16916575454303Q898.1270696834378 269.76007478706987 902.5252179069063 269.76007478706987L902.5252179069063 269.76007478706987Q907.3863291012661 269.76007478706987 910.1851506980189 273.6952600396469Q912.9839722947714 277.63044529222395 914.4991238358707 284.91159019806173L914.4991238358707 284.91159019806173Q916.4772383478613 292.3189977323244 917.8240397177273 303.76680937618505Q919.1918848589974 315.21462102004557 919.1918848589974 326.8728703779476L919.1918848589974 326.8728703779476Q919.1918848589974 341.414116418219 918.1396962887897 351.26260143536376Q917.0664639471776 361.1110864525085 914.6464302356998 367.6346555877967Q912.226396524222 374.13718095168065 908.2912112716448 378.9982921460406L908.2912112716448 378.9982921460406Q901.7676421363566 386.86866265119477 891.5403692339372 391.0353293892175Q881.3130963315176 395.20199612724025 867.9923890326872 395.20199612724025L867.9923890326872 395.20199612724025Q858.4385168152006 395.20199612724025 852.6725234504621 393.4553631006954Q846.9275738571276 391.72977384555463 844.4233650600332 388.76260207756866Q841.9191562629387 385.81647408098695 841.9191562629387 382.1759016280681L841.9191562629387 382.1759016280681Q841.9191562629387 378.3880227753201 844.0445771747584 375.8838139782256Q846.1699980865781 373.37960518113107 850.3997961388134 373.37960518113107L850.3997961388134 373.37960518113107Q854.1876749915613 373.37960518113107 859.2802676713669 374.6001439225721Q864.3518165797683 375.82068266401313 871.3173049145438 375.82068266401313L871.3173049145438 375.82068266401313Q886.0058573546443 375.82068266401313 892.1506386046577 368.9183256434502Q898.295419854671 362.01596862288716 898.295419854671 349.1371805235441L898.295419854671 349.1371805235441Q898.295419854671 345.66495824185847 897.8324568837796 340.9721972187318L897.8324568837796 340.9721972187318L899.9578777955993 341.7297729892814Q896.1699989428513 351.4099078351928 888.7415476371845 357.26007628554805Q881.3130963315176 363.0892009644991 871.4646113143729 363.0892009644991ZM877.2306046791115 344.44441950041744L877.2306046791115 344.44441950041744Q882.0706721020672 344.44441950041744 886.9317832964272 341.87707938911046Q891.7718507193829 339.28869550639934 894.9494602014103 333.3964395132358Q898.1270696834378 327.4831397486681 898.1270696834378 317.4873483316943L898.1270696834378 317.4873483316943Q898.1270696834378 305.5134424027299 892.5294264899325 297.937684697234Q886.9317832964272 290.36192699173796 876.7676417082201 290.36192699173796L876.7676417082201 290.36192699173796Q867.9923890326872 290.36192699173796 863.888853608877 297.0328025268552Q859.8063619564708 303.68263429056833 859.8063619564708 317.17169176063203L859.8063619564708 317.17169176063203Q859.8063619564708 330.0504798599751 863.888853608877 337.24744968019627Q867.9923890326872 344.44441950041744 877.2306046791115 344.44441950041744Z " fill="#3d155f" transform="matrix(0.9519231394931449,0,0,0.9519231394931449,0,-4.807702851153749)"/></g></svg>